# xmcd
#
# Track frame offsets: 
#        150
#        14086
#        30426
#        47147
#        65704
#
# Disc length: 1057 seconds
#
# Revision: 0
# Processed by: cddbd v1.5.2PL0 Copyright (c) Steve Scherf et al.
# Submitted via: ExactAudioCopy v1.3
#
DISCID=40041f05
DTITLE=Randall King - Another Bullet
DYEAR=2016
DGENRE=Country
TTITLE0=The Problem
TTITLE1=Ain't Waitin On You
TTITLE2=Smokin' Cigarettes
TTITLE3=Another Bullet
TTITLE4=Hard Livin' Illene
EXTD=
EXTT0=
EXTT1=
EXTT2=
EXTT3=
EXTT4=
PLAYORDER=
